<svg width="112" height="112" viewBox="0 0 112 112" fill="none" xmlns="http://www.w3.org/2000/svg">
<path d="M102.952 78.7499L87.0974 62.8905L71.1462 10.2637C70.6928 8.76514 69.8769 7.40154 68.7707 6.29366C67.6645 5.18578 66.3021 4.36782 64.8043 3.91223C63.3064 3.45665 61.7193 3.3775 60.1836 3.68181C58.6479 3.98611 57.2109 4.66447 55.9999 5.6568C54.789 4.66447 53.352 3.98611 51.8162 3.68181C50.2805 3.3775 48.6934 3.45665 47.1955 3.91223C45.6977 4.36782 44.3353 5.18578 43.2291 6.29366C42.1229 7.40154 41.307 8.76514 40.8537 10.2637L24.9024 62.8949L9.04741 78.7499C7.73565 80.0625 6.99878 81.8423 6.99878 83.698C6.99878 85.5538 7.73565 87.3335 9.04741 88.6462L23.3493 102.948C23.9993 103.598 24.7711 104.114 25.6204 104.466C26.4698 104.818 27.3802 104.999 28.2996 104.999C29.219 104.999 30.1294 104.818 30.9788 104.466C31.8281 104.114 32.5999 103.598 33.2499 102.948L54.3724 81.8124C54.9576 81.2252 55.5014 80.598 55.9999 79.9356C56.4984 80.598 57.0422 81.2252 57.6274 81.8124L78.7499 102.952C79.3999 103.603 80.1717 104.118 81.0211 104.47C81.8705 104.822 82.7808 105.003 83.7002 105.003C84.6196 105.003 85.53 104.822 86.3794 104.47C87.2288 104.118 88.0005 103.603 88.6505 102.952L102.952 88.6506C103.603 88.0005 104.118 87.2288 104.47 86.3794C104.822 85.53 105.003 84.6196 105.003 83.7002C105.003 82.7809 104.822 81.8705 104.47 81.0211C104.118 80.1717 103.603 79.4 102.952 78.7499ZM28.2974 97.9999L13.9999 83.7024L19.5518 78.1506L33.8537 92.4524L28.2974 97.9999ZM52.4999 69.453C52.5069 70.8337 52.2398 72.2021 51.7141 73.4787C51.1884 74.7554 50.4146 75.9151 49.4374 76.8905L38.7974 87.4999L24.4999 73.2024L30.4718 67.2262C30.8793 66.8186 31.1799 66.3166 31.3468 65.7649L47.5343 12.2937C47.6985 11.6987 48.0746 11.1843 48.5918 10.8474C49.109 10.5105 49.7316 10.3745 50.3422 10.4648C50.9528 10.5552 51.5092 10.8658 51.9067 11.3381C52.3041 11.8103 52.5151 12.4116 52.4999 13.0287V69.453ZM62.5624 76.8905C61.5853 75.9151 60.8114 74.7554 60.2857 73.4787C59.76 72.2021 59.4929 70.8337 59.4999 69.453V13.0155C59.5001 12.4094 59.718 11.8234 60.1139 11.3644C60.5099 10.9055 61.0575 10.604 61.6571 10.5149C62.2567 10.4258 62.8683 10.5551 63.3806 10.8792C63.8929 11.2033 64.2717 11.7006 64.448 12.2805L80.6355 65.7518C80.8024 66.3035 81.103 66.8054 81.5105 67.2131L87.8499 73.5524L73.2374 87.5524L62.5624 76.8905ZM83.7024 97.9999L78.2074 92.5005L92.8155 78.5005L97.9999 83.7024L83.7024 97.9999Z" fill="#808B94"/>
</svg>
