<svg width="90" height="90" viewBox="0 0 90 90" fill="none" xmlns="http://www.w3.org/2000/svg">
<path d="M84.375 30.9375C84.375 34.2616 83.7203 37.5531 82.4482 40.6242C81.1761 43.6952 79.3116 46.4857 76.9611 48.8361C74.6107 51.1866 71.8202 53.0511 68.7492 54.3232C65.6781 55.5953 62.3866 56.25 59.0625 56.25C55.7384 56.25 52.4469 55.5953 49.3758 54.3232C46.3048 53.0511 43.5143 51.1866 41.1639 48.8361C38.8134 46.4857 36.9489 43.6952 35.6768 40.6242C34.4047 37.5531 33.75 34.2616 33.75 30.9375C33.75 24.2242 36.4168 17.7859 41.1639 13.0389C45.9109 8.29185 52.3492 5.625 59.0625 5.625C65.7758 5.625 72.2141 8.29185 76.9611 13.0389C81.7082 17.7859 84.375 24.2242 84.375 30.9375ZM72.3037 20.5087C72.0425 20.2468 71.7321 20.039 71.3904 19.8972C71.0487 19.7555 70.6824 19.6825 70.3125 19.6825C69.9426 19.6825 69.5763 19.7555 69.2346 19.8972C68.8929 20.039 68.5825 20.2468 68.3213 20.5087L53.4375 35.3981L49.8037 31.7587C49.5423 31.4973 49.2318 31.2898 48.8902 31.1483C48.5485 31.0068 48.1823 30.9339 47.8125 30.9339C47.4427 30.9339 47.0765 31.0068 46.7348 31.1483C46.3932 31.2898 46.0827 31.4973 45.8213 31.7587C45.5598 32.0202 45.3523 32.3307 45.2108 32.6723C45.0693 33.014 44.9964 33.3802 44.9964 33.75C44.9964 34.1198 45.0693 34.486 45.2108 34.8277C45.3523 35.1693 45.5598 35.4798 45.8213 35.7413L51.4463 41.3662C51.7075 41.6282 52.0179 41.836 52.3596 41.9778C52.7013 42.1195 53.0676 42.1925 53.4375 42.1925C53.8074 42.1925 54.1737 42.1195 54.5154 41.9778C54.8571 41.836 55.1675 41.6282 55.4287 41.3662L72.3037 24.4913C72.5657 24.23 72.7735 23.9196 72.9153 23.5779C73.057 23.2362 73.13 22.8699 73.13 22.5C73.13 22.1301 73.057 21.7638 72.9153 21.4221C72.7735 21.0804 72.5657 20.77 72.3037 20.5087ZM67.5 73.125V60.7106C69.465 60.1519 71.34 59.415 73.125 58.5V73.125C73.125 76.1087 71.9397 78.9702 69.8299 81.0799C67.7202 83.1897 64.8587 84.375 61.875 84.375H16.875C13.8913 84.375 11.0298 83.1897 8.92005 81.0799C6.81026 78.9702 5.625 76.1087 5.625 73.125V39.375C5.625 36.3913 6.81026 33.5298 8.92005 31.42C11.0298 29.3103 13.8913 28.125 16.875 28.125H28.2487C28.081 29.9962 28.081 31.8788 28.2487 33.75H16.875C15.3832 33.75 13.9524 34.3426 12.8975 35.3975C11.8426 36.4524 11.25 37.8832 11.25 39.375V43.5375L39.375 58.68L42.435 57.0319C44.3738 58.2731 46.4437 59.2894 48.645 60.0806L40.7137 64.3556C40.3033 64.5772 39.8442 64.6932 39.3778 64.6932C38.9114 64.6932 38.4523 64.5772 38.0419 64.3556L11.25 49.9219V73.125C11.25 74.6168 11.8426 76.0476 12.8975 77.1025C13.9524 78.1574 15.3832 78.75 16.875 78.75H61.875C63.3668 78.75 64.7976 78.1574 65.8525 77.1025C66.9074 76.0476 67.5 74.6168 67.5 73.125Z" fill="#808B94"/>
</svg>
