<svg width="94" height="94" viewBox="0 0 94 94" fill="none" xmlns="http://www.w3.org/2000/svg">
<path d="M88.125 32.3125C88.125 35.7843 87.4412 39.2221 86.1126 42.4297C84.784 45.6372 82.8366 48.5517 80.3816 51.0066C77.9267 53.4616 75.0122 55.409 71.8047 56.7376C68.5971 58.0662 65.1593 58.75 61.6875 58.75C58.2157 58.75 54.7779 58.0662 51.5703 56.7376C48.3628 55.409 45.4483 53.4616 42.9934 51.0066C40.5384 48.5517 38.591 45.6372 37.2624 42.4297C35.9338 39.2221 35.25 35.7843 35.25 32.3125C35.25 25.3008 38.0354 18.5764 42.9934 13.6184C47.9514 8.66037 54.6758 5.875 61.6875 5.875C68.6992 5.875 75.4236 8.66037 80.3816 13.6184C85.3396 18.5764 88.125 25.3008 88.125 32.3125ZM75.5173 21.4202C75.2444 21.1467 74.9202 20.9297 74.5633 20.7816C74.2065 20.6335 73.8239 20.5572 73.4375 20.5572C73.0511 20.5572 72.6685 20.6335 72.3117 20.7816C71.9548 20.9297 71.6306 21.1467 71.3577 21.4202L55.8125 36.9714L52.0173 33.1702C51.7441 32.8971 51.4199 32.6805 51.0631 32.5327C50.7062 32.3849 50.3237 32.3088 49.9375 32.3088C49.5513 32.3088 49.1688 32.3849 48.8119 32.5327C48.4551 32.6805 48.1309 32.8971 47.8577 33.1702C47.5846 33.4434 47.368 33.7676 47.2202 34.1244C47.0724 34.4813 46.9963 34.8638 46.9963 35.25C46.9963 35.6362 47.0724 36.0187 47.2202 36.3756C47.368 36.7324 47.5846 37.0566 47.8577 37.3298L53.7327 43.2048C54.0056 43.4783 54.3298 43.6953 54.6867 43.8434C55.0435 43.9915 55.4261 44.0677 55.8125 44.0677C56.1989 44.0677 56.5815 43.9915 56.9383 43.8434C57.2952 43.6953 57.6194 43.4783 57.8923 43.2048L75.5173 25.5798C75.7908 25.3069 76.0078 24.9827 76.1559 24.6258C76.304 24.269 76.3802 23.8864 76.3802 23.5C76.3802 23.1136 76.304 22.731 76.1559 22.3742C76.0078 22.0173 75.7908 21.6931 75.5173 21.4202ZM70.5 76.375V63.4089C72.5523 62.8253 74.5107 62.0557 76.375 61.1V76.375C76.375 79.4913 75.1371 82.48 72.9335 84.6835C70.73 86.8871 67.7413 88.125 64.625 88.125H17.625C14.5087 88.125 11.52 86.8871 9.3165 84.6835C7.11294 82.48 5.875 79.4913 5.875 76.375V41.125C5.875 38.0087 7.11294 35.02 9.3165 32.8165C11.52 30.6129 14.5087 29.375 17.625 29.375H29.5042C29.329 31.3294 29.329 33.2956 29.5042 35.25H17.625C16.0669 35.25 14.5725 35.869 13.4707 36.9707C12.369 38.0725 11.75 39.5669 11.75 41.125V45.4725L41.125 61.288L44.321 59.5666C46.3459 60.863 48.5079 61.9245 50.807 62.7509L42.5232 67.2159C42.0946 67.4473 41.6151 67.5684 41.1279 67.5684C40.6408 67.5684 40.1613 67.4473 39.7326 67.2159L11.75 52.1406V76.375C11.75 77.9331 12.369 79.4275 13.4707 80.5293C14.5725 81.631 16.0669 82.25 17.625 82.25H64.625C66.1831 82.25 67.6775 81.631 68.7793 80.5293C69.881 79.4275 70.5 77.9331 70.5 76.375Z" fill="#808B94"/>
</svg>
