<svg width="117" height="117" viewBox="0 0 117 117" fill="none" xmlns="http://www.w3.org/2000/svg">
<path d="M48.75 48.75H68.25V68.25H48.75V48.75Z" stroke="#808B94" stroke-width="6" stroke-linecap="round" stroke-linejoin="round"/>
<path d="M48.75 48.75C42.9 41.4375 32.175 34.125 19.5 34.125C14.1375 34.125 9.75 44.85 9.75 58.5C9.75 72.15 14.1375 82.875 19.5 82.875C32.175 82.875 42.9 75.5625 48.75 68.25M68.25 68.25C74.1 75.5625 84.825 82.875 97.5 82.875C102.863 82.875 107.25 72.15 107.25 58.5C107.25 44.85 102.863 34.125 97.5 34.125C84.825 34.125 74.1 41.4375 68.25 48.75" stroke="#808B94" stroke-width="6" stroke-linecap="round" stroke-linejoin="round"/>
</svg>
