<svg width="94" height="94" viewBox="0 0 94 94" fill="none" xmlns="http://www.w3.org/2000/svg">
<path d="M88.125 32.3125V8.8125C88.125 8.03343 87.8155 7.28626 87.2646 6.73537C86.7137 6.18449 85.9666 5.875 85.1875 5.875H55.8125C55.0334 5.875 54.2863 6.18449 53.7354 6.73537C53.1845 7.28626 52.875 8.03343 52.875 8.8125V32.3125C52.8816 36.4739 54.3594 40.499 57.0472 43.676C59.735 46.853 63.4597 48.9772 67.5625 49.6731V82.25H55.8125V88.125H85.1875V82.25H73.4375V49.6731C77.5403 48.9772 81.265 46.853 83.9528 43.676C86.6406 40.499 88.1184 36.4739 88.125 32.3125ZM58.75 32.3125V11.75H82.25V32.3125C82.25 35.4288 81.0121 38.4175 78.8085 40.621C76.6049 42.8246 73.6163 44.0625 70.5 44.0625C67.3837 44.0625 64.3951 42.8246 62.1915 40.621C59.9879 38.4175 58.75 35.4288 58.75 32.3125ZM35.25 5.875V32.3713C35.2469 35.4554 34.0203 38.4124 31.8395 40.5932C29.6586 42.7741 26.7017 44.0006 23.6175 44.0037C20.5023 44.0312 17.5034 42.8219 15.2787 40.6412C13.0539 38.4605 11.7849 35.4864 11.75 32.3713V5.875H5.875V32.3713C5.90448 36.5122 7.39349 40.51 10.08 43.6613C12.7665 46.8126 16.4784 48.9154 20.5625 49.5997V88.125H26.4375V49.6291C30.5329 48.9577 34.257 46.8545 36.9467 43.6941C39.6364 40.5337 41.1171 36.5213 41.125 32.3713V5.875H35.25Z" fill="#808B94"/>
<path d="M20.5625 5.875H26.4375V35.1912H20.5625V5.875Z" fill="#808B94"/>
</svg>
