<svg width="112" height="112" viewBox="0 0 112 112" fill="none" xmlns="http://www.w3.org/2000/svg">
<path d="M93.3332 32.6666H87.6913C88.3699 30.3963 88.6988 28.0359 88.6666 25.6666C88.6666 16.6599 81.3399 9.33325 72.3332 9.33325C64.7639 9.33325 59.7099 16.2493 56.4479 23.7299C53.2326 16.6599 47.9219 9.33325 39.6666 9.33325C30.6599 9.33325 23.3333 16.6599 23.3333 25.6666C23.3333 28.4479 23.7019 30.7486 24.3086 32.6666H18.6666C13.5193 32.6666 9.33325 36.8526 9.33325 41.9999V51.3333C9.33325 56.4806 13.5193 60.6666 18.6666 60.6666V93.3332C18.6666 98.4806 22.8526 102.667 27.9999 102.667H83.9999C89.1472 102.667 93.3332 98.4806 93.3332 93.3332V60.6666C98.4806 60.6666 102.667 56.4806 102.667 51.3333V41.9999C102.667 36.8526 98.4806 32.6666 93.3332 32.6666ZM72.3332 18.6666C76.1926 18.6666 79.3332 21.8073 79.3332 25.6666C79.3332 32.6666 76.4119 32.6666 74.6666 32.6666H63.1026C65.4873 25.3119 68.9499 18.6666 72.3332 18.6666ZM32.6666 25.6666C32.6666 21.8073 35.8073 18.6666 39.6666 18.6666C43.8106 18.6666 47.6653 25.7833 49.9239 32.6666H37.3333C35.5879 32.6666 32.6666 32.6666 32.6666 25.6666ZM18.6666 41.9999H51.3333V51.3333H18.6666V41.9999ZM27.9999 93.3332V60.6666H51.3333V93.3332H27.9999ZM83.9999 93.3332H60.6666V60.6666H83.9999V93.3332ZM60.6666 51.3333V42.3966L60.7459 41.9999H93.3332L93.3379 51.3333H60.6666Z" fill="#808B94"/>
</svg>
